<svg width="640.84" height="286.02" enable-background="new 0 0 1000 1000" version="1.1" viewBox="0 0 640.84 286.02" xml:space="preserve" xmlns="http://www.w3.org/2000/svg">  <path d="m104.77 283.75c-1.6867-3.541-12.925-59.198-16.305-80.75-1.682-10.725-3.4116-20.85-3.8436-22.5l-0.78535-3-7.4162 0.2378c-4.0789 0.1308-11.466 0.69538-16.416 1.2546-4.95 0.55925-15.525 1.7246-23.5 2.5898-9.5391 1.0348-15.013 2.0718-16 3.031-1.2469 1.2121-1.4622 4.6995-1.2764 20.672 0.12298 10.568 0.72717 24.164 1.3426 30.214 1.693 16.642 1.7248 15.959-0.761 16.312-1.7962 0.25561-2.3782-0.37979-3.2056-3.5-2.1738-8.1976-3.193-22.565-3.0321-42.74l0.16813-21.072-13.736-1.0026 6.9011-1.6842c3.7956-0.92631 7.2124-2.1879 7.5929-2.8035 0.38049-0.61565 1.2374-6.1572 1.9043-12.315 4.7182-43.565 21.183-103.42 38.565-140.2 9.4452-19.983 14.72-26.5 21.449-26.5 5.084 0 7.6322 2.1546 9.7575 8.2505 1.6947 4.8607 1.8056 8.804 1.4982 53.249-0.29143 42.134-0.0582 51.727 1.9086 78.5 1.2324 16.775 2.6227 31 3.0896 31.612 0.46692 0.61138 3.1736 1.3869 6.0148 1.7234s5.6278 1.0738 6.1924 1.6384c1.1579 1.1579-0.59186 1.4435-6.6219 1.0805-2.6548-0.15979-3.9267 0.23902-4.3595 1.3668-0.96665 2.519 8.5572 65.739 14.533 96.469 1.1112 5.7145 1.7812 10.777 1.4888 11.25-1.0273 1.6622-4.087 0.83595-5.1473-1.39zm-50.266-107.18c13.475-1.4714 25.512-2.8843 26.75-3.1399 2.7739-0.57285 2.8672-2.9584 0.78064-19.956-1.7614-14.35-3.4508-60.38-3.6322-98.97-0.1446-30.761-1.1216-48.123-2.8028-49.804-1.7726-1.7726-7.6648 4.8017-12.574 14.03-12.334 23.185-27.477 69.13-34.988 106.15-2.9573 14.577-7.9425 51.612-7.2058 53.532 0.66501 1.733 1.1351 1.7072 33.672-1.8456zm177.4 96.684c0.33749-0.9625 2.2981-6.1555 4.357-11.54 3.6051-9.4285 3.8486-9.7793 6.592-9.5 2.9989 0.30532 3.651 1.4821 9.5342 17.206l2.0891 5.5837h-2.5796c-1.7386 0-2.7501-0.65205-3.1026-2-0.44027-1.6836-1.364-2-5.839-2-4.4377 0-5.4209 0.33042-5.9508 2-0.41525 1.3084-1.513 2-3.1744 2-1.9858 0-2.4058-0.38164-1.926-1.75zm13.565-8.5c-0.0603-2.1278-2.6449-6.0763-3.292-5.0292-0.33687 0.54507-1.0649 2.1809-1.6178 3.6351-0.94729 2.4916-0.83366 2.6441 1.97 2.6441 1.7324 0 2.9604-0.52215 2.9398-1.25zm34.035-1.25v-11.5h8.3257c7.4098 0 8.5649 0.25461 10.5 2.3144 2.6805 2.8533 2.825 7.6604 0.32304 10.75-1.4676 1.8124-3.1256 2.3784-8 2.731l-6.1487 0.44476v3.3798c0 2.9385-0.32646 3.3798-2.5 3.3798h-2.5zm15.8-1.7c2.8066-2.8066-0.48169-5.8-6.3714-5.8-4.3946 0-4.4286 0.0269-4.4286 3.5v3.5h4.8c2.64 0 5.34-0.54 6-1.2zm31.422 11.95c0.24005-0.6875 2.1723-5.8847 4.2939-11.549 3.7681-10.061 3.9254-10.292 6.7949-10 3.1324 0.31929 3.0311 0.13772 9.2361 16.549l2.363 6.25h-2.5488c-1.7078 0-2.7214-0.65992-3.0718-2-0.44027-1.6836-1.364-2-5.839-2-4.4377 0-5.4209 0.33042-5.9508 2-0.41525 1.3084-1.513 2-3.1744 2-1.5978 0-2.3777-0.46356-2.1031-1.25zm13.742-9c-0.0603-2.1278-2.6449-6.0763-3.292-5.0292-0.33687 0.54507-1.0649 2.1809-1.6178 3.6351-0.94729 2.4916-0.83366 2.6441 1.97 2.6441 1.7324 0 2.9604-0.52215 2.9398-1.25zm34.035-1.25v-11.5h7.3892c5.7296 0 7.9082 0.42025 9.7 1.8712 3.128 2.5329 3.1488 8.1821 0.0424 11.489l-2.2684 2.4146 6.344 7.2254h-3.1341c-2.3299 0-3.9227-0.89816-6.2072-3.5-1.6902-1.925-3.9264-3.5-4.9694-3.5-1.5007 0-1.8964 0.7304-1.8964 3.5 0 3.0667-0.30952 3.5-2.5 3.5h-2.5v-11.5zm14.07-2.0838c2.0996-2.5299-0.10163-4.8664-4.9214-5.2237-4.1445-0.30722-4.1482-0.30434-4.1482 3.25 0 3.465 0.10079 3.5575 3.8776 3.5575 2.318 0 4.4062-0.63703 5.192-1.5838zm40.93 4.0838v-9.5h-3.5c-2.8333 0-3.5-0.38095-3.5-2 0-1.8596 0.66667-2 9.5-2s9.5 0.14035 9.5 2c0 1.619-0.66667 2-3.5 2h-3.5v9.5c0 9.4667-9e-3 9.5-2.5 9.5-2.4912 0-2.5-0.0333-2.5-9.5zm139.08-46.765c-1.333-0.67939-3.5043-3.2603-4.825-5.7353-1.9368-3.6295-2.2858-5.4011-1.804-9.1581 0.84786-6.6126 4.0888-15.502 6.8468-18.779 4.528-5.3812 5.2538-8.6199 3.2294-14.411-2.378-6.8028-10.682-17.836-20.626-27.406-10.098-9.7177-14.638-15.835-17.388-23.428l-2.1594-5.9637-8.425 9.2391c-14.633 16.047-30.425 29.767-38.908 33.804-13.561 6.4536-27.437 5.0842-34.927-3.447-3.3909-3.862-6.0796-13.92-6.8373-25.578l-0.49577-7.6278-10.629 11.039c-17.329 17.998-34.926 29.538-46.507 30.498-4.8432 0.40164-5.4894 0.20198-7.4619-2.3057-4.2859-5.4486-2.106-17.901 6.33-36.159 4.0148-8.6894 4.8833-8.3545-12.49-4.8163-6.7513 1.375-13.788 2.5-15.638 2.5-2.2565 0-3.3625 0.4726-3.3625 1.4368 0 2.7319-10.851 25.703-16.166 34.223-2.9339 4.703-8.0344 11.473-11.334 15.045-5.1778 5.6038-6.4972 6.5068-9.6283 6.5895-1.9956 0.0527-4.803-0.67384-6.2387-1.6146-3.1361-2.0548-8.6105-11.256-8.6236-14.495-0.0122-3.0145-1.8462-6.4032-3.0596-5.6532-0.52241 0.32286-0.94983 1.4551-0.94983 2.516 0 4.0975-6.1064 20.914-8.1018 22.312-3.8917 2.7258-8.6022-0.65155-10.961-7.8588-0.71999-2.2-1.5629-10.017-1.8732-17.371l-0.56411-13.371-3.137 4.3705c-5.4926 7.6524-13.621 15.05-19.363 17.621-4.7184 2.113-6.5915 2.4008-13.181 2.0256-6.9386-0.39505-8.2371-0.81609-13.436-4.3567-7.6642-5.2193-17.272-14.24-23.489-22.053-2.7863-3.5016-5.5022-6.3666-6.0352-6.3666s-2.122 2.5875-3.531 5.75c-1.409 3.1625-3.5786 8-4.8213 10.75s-2.8775 6.758-3.6329 8.9067c-1.9241 5.4732-6.0171 9.5942-9.5246 9.5896-6.9706-9e-3 -13.536-7.5506-19.862-22.813-2.2072-5.3257-4.4086-9.6832-4.8921-9.6832-2.2851 0-4.7649 5.9107-6.7127 16-1.168 6.05-2.6836 13.925-3.3679 17.5-0.68439 3.575-2.007 8.975-2.939 12s-2.1978 7.3-2.8126 9.5c-2.3573 8.4346-3.3219 9.5-8.6011 9.5-8.0838 0-11.609-5.5002-12.728-19.858-1.0614-13.62-1.1009-21.265-0.22448-43.4 0.68139-17.21 1.2839-23.126 2.8819-28.3 2.1823-7.0654 2.9608-7.4084 8.6593-3.8146 2.1042 1.327 2.2507 2.1143 2.2602 12.146 6e-3 5.8998-0.51152 22.658-1.1491 37.24-1.2525 28.644-0.83277 36.312 1.9592 35.797 1.9887-0.36678 3.5977-5.2904 8.5977-26.31 5.3567-22.519 7.1021-27.585 10.95-31.786 2.5198-2.751 4.2034-3.7139 6.4939-3.7139 3.8279 0 5.1399 1.9383 8.1229 12 2.536 8.554 6.9285 18.339 9.864 21.974 1.9972 2.473 1.9993 2.4733 4.1858 0.5 2.742-2.4745 9.2301-15.259 11.326-22.318 2.0847-7.0198 5.1337-11.813 7.9672-12.524 3.8985-0.97846 9.9151 1.3633 13.649 5.3126 1.9374 2.049 6.5286 7.1052 10.203 11.236 3.674 4.1308 9.7948 9.6388 13.602 12.24 8.444 5.7695 13.109 6.6954 18.887 3.7481 5.0437-2.5731 16.588-16.148 22.258-26.174 2.3314-4.1223 4.8242-8.17 5.5396-8.995s2.0164-4.0037 2.8912-7.0638c0.87473-3.0601 2.955-7.4476 4.6229-9.75 2.4947-3.4438 3.6126-4.1862 6.3037-4.1862 4.2037 0 7.0209 2.015 9.1807 6.5664 1.4738 3.1058 1.6265 5.4062 1.0476 15.785-0.8489 15.22 0.36823 23.089 5.5865 36.118 3.8909 9.7151 5.0676 11.484 7.6606 11.516 4.3771 0.0532 34.342-52.039 31.111-54.086-0.75377-0.47749-1.6358-0.87507-1.96-0.88349-0.32422-8e-3 -1.1103-1.1583-1.7468-2.5552-2.22-4.8723 2.9474-11.639 15.491-20.286 3.4403-2.3715 9.2414-2.8787 11.146-0.97441 1.6283 1.6283 1.5101 6.122-0.27317 10.39l-1.4732 3.5258 7.2232-0.80791c19.82-2.2169 22.364 0.49427 14.724 15.69-5.1519 10.247-9.0012 21.762-9.0012 26.929 0 3.9753 0.083 4.0737 3.4396 4.0737 7.8295 0 33.842-16.724 50.24-32.301 6.4995-6.1739 7.2798-7.327 7.8023-11.53 2.3002-18.502 7.8923-38.674 12.525-45.18 3.0268-4.2508 7.2166-6.1524 12.763-5.7926 3.8208 0.24787 4.9287 0.77352 6.1193 2.9035 1.2873 2.303 1.2515 3.4481-0.31328 10-3.5754 14.971-12.088 31.209-16.076 30.665-2.9692-0.40479-2.1913-3.7536 2.8077-12.088 3.968-6.615 10.299-24.405 9.1094-25.595-2.671-2.6709-10.755 13.105-13.683 26.7-3.118 14.481-3.1121 38.925 0.0119 48.859 1.6703 5.3115 3.1393 7.9272 5.7286 10.201 4.0188 3.5286 9.1936 4.8159 13.427 3.3402 8.291-2.8903 21.817-13.987 42.756-35.078l13.158-13.253 1.5952-7.0639c3.0455-13.486 16.207-33.639 28.315-43.355 6.1456-4.9318 16.859-10.433 20.318-10.433 2.5522 0 5.9562 1.7264 5.9562 3.0208 0 0.52273-2.5875 2.2706-5.75 3.884-12.929 6.5964-24.09 18.269-31.604 33.053-6.8981 13.572-8.9544 20.1-8.4646 26.873 0.62237 8.604 4.4024 15.243 16.362 28.738 5.8154 6.5619 12.46 14.729 14.765 18.149 2.3053 3.4201 4.6991 6.2326 5.3196 6.25 0.62048 0.0174 4.4065-4.3298 8.4133-9.6606 7.298-9.7093 15.879-19.97 25.382-30.354 2.7919-3.0502 9.8011-11.033 15.576-17.739s10.782-12.198 11.128-12.204c0.34515-6e-3 1.1425 0.60946 1.7719 1.3678 0.89451 1.0778 0.50429 2.1149-1.7873 4.75-1.6124 1.8541-8.2007 9.4461-14.641 16.871-6.44 7.425-14.693 16.851-18.34 20.946-21.555 24.203-25.927 33.399-21.479 45.178 1.0681 2.8286 1.6262 7.2044 1.5783 12.376-0.0912 9.8517-2.639 16.353-7.6134 19.428-3.8354 2.3704-6.0988 2.562-9.5409 0.8077zm8.0922-6.4853c2.0806-3.3463 2.3316-4.9573 2.3316-14.965 0-9.3476-0.29136-11.506-1.75-12.964-1.5319-1.5315-1.9198-1.567-3.1124-0.28521-2.7041 2.9064-7.6376 16.758-7.6376 21.444 0 10.158 5.7017 13.954 10.168 6.7699zm-286.34-48.827c4.4996-13.312 7.0181-42.109 4.1513-47.466-1.6408-3.0658-2.6253-1.5977-5.0823 7.5784-2.6459 9.8816-3.988 44.989-1.691 44.236 0.71272-0.23383 1.8926-2.1907 2.622-4.3486z" fill="#fff"/>
</svg>
